<?xml version="1.0" encoding="UTF-8"?> <svg xmlns="http://www.w3.org/2000/svg" width="135" height="30" viewBox="0 0 135 30" fill="none"><path fill-rule="evenodd" clip-rule="evenodd" d="M5.97763 2H73.6974C76.9988 2 79.675 4.68004 79.675 7.98604V21.866C79.675 25.172 76.9988 27.852 73.6974 27.852H5.97763C2.67628 27.852 0 25.172 0 21.866V7.98604C0 4.68004 2.67628 2 5.97763 2ZM56.7967 14.1212C57.2928 14.3171 57.7292 14.5762 58.1049 14.9003L58.1058 14.902C58.4815 15.2261 58.7863 15.6331 59.0195 16.1223C59.2518 16.6123 59.3687 17.2186 59.3687 17.9412V18.6193C59.3687 19.3872 59.2253 20.0611 58.9401 20.6409C58.654 21.2207 58.2407 21.6953 57.6993 22.0639C57.1579 22.4324 56.5268 22.7112 55.8044 22.8993C55.0819 23.0875 54.2775 23.1815 53.3902 23.1815C52.3672 23.1815 51.4655 23.0652 50.6832 22.8318C49.901 22.5992 49.2546 22.2674 48.7431 21.8381C48.2316 21.4088 47.8481 20.8744 47.5928 20.2338C47.3375 19.5942 47.2094 18.875 47.2094 18.0763V17.9609H50.7063C50.7089 18.3149 50.7678 18.6356 50.8865 18.9238C51.0069 19.2179 51.1871 19.4625 51.4279 19.6583C51.6678 19.855 51.9582 20.0089 52.2963 20.1218C52.6354 20.2347 53.0077 20.2911 53.4133 20.2911C53.789 20.2911 54.1246 20.2612 54.4176 20.2005C54.7113 20.1406 54.959 20.0423 55.1622 19.9072C55.3646 19.7712 55.5149 19.5985 55.6131 19.3872C55.7113 19.176 55.76 18.928 55.76 18.6416V18.0541C55.76 17.6932 55.6438 17.3956 55.4107 17.1622C55.1776 16.9287 54.8693 16.7363 54.4859 16.5858C54.1024 16.4361 53.6661 16.3036 53.1776 16.1907C52.6883 16.0778 52.1887 15.9504 51.6772 15.8067C51.1657 15.6639 50.6653 15.4946 50.1768 15.2988C49.6875 15.103 49.2477 14.8396 48.8566 14.5078C48.4655 14.176 48.1607 13.7698 47.9429 13.2875C47.7252 12.806 47.6159 12.2108 47.6159 11.5028V11.0059C47.6159 10.2525 47.7627 9.60862 48.0556 9.07415C48.3485 8.53968 48.7661 8.09501 49.3075 7.74097C49.8481 7.38694 50.4689 7.12356 51.1683 6.94996C51.8677 6.77722 52.6234 6.69 53.4355 6.69C54.3834 6.69 55.21 6.81143 55.9171 7.05172C56.6241 7.29288 57.2142 7.63152 57.6882 8.0685C58.1621 8.50548 58.5225 9.01686 58.771 9.60434C59.0195 10.1918 59.1433 10.8238 59.1433 11.5019V12.2245H55.6242V11.6601C55.6242 11.3138 55.5712 11.0128 55.4662 10.7562C55.3612 10.4997 55.2109 10.2893 55.0153 10.1234C54.8198 9.95838 54.5832 9.82668 54.3048 9.72834C54.0264 9.63 53.7071 9.58125 53.3458 9.58125C53.0444 9.58125 52.7626 9.61546 52.4996 9.68302C52.2357 9.75057 52.0069 9.84892 51.8113 9.97633C51.6157 10.1046 51.4654 10.2628 51.3604 10.4509C51.2554 10.6391 51.2024 10.8614 51.2024 11.1171V11.5011C51.2024 11.8773 51.3186 12.1749 51.5517 12.393C51.7848 12.611 52.0931 12.7923 52.4765 12.9351C52.8599 13.0788 53.2997 13.1994 53.7959 13.2969C54.292 13.3944 54.7924 13.5081 55.2963 13.6355C55.8001 13.7638 56.3005 13.9254 56.7967 14.1212ZM42.0795 17.0355C42.0795 17.4725 42.0419 17.8796 41.9667 18.2558C41.8916 18.6321 41.7635 18.9562 41.5833 19.2273C41.4031 19.4984 41.1512 19.7173 40.8276 19.8823C40.5039 20.0482 40.094 20.1312 39.5979 20.1312C39.1018 20.1312 38.662 20.0525 38.323 19.8943C37.9848 19.7361 37.7252 19.518 37.5442 19.2393C37.364 18.9605 37.2393 18.633 37.1718 18.2567C37.1044 17.8804 37.0702 17.4811 37.0702 17.0595V7.02688H33.6186V17.2382C33.6186 18.0061 33.6971 18.692 33.8551 19.294C34.0131 19.8969 34.2351 20.4159 34.5203 20.8529C34.8055 21.2899 35.1403 21.6551 35.5246 21.9484C35.908 22.2417 36.3213 22.4794 36.7654 22.6599C37.2086 22.8403 37.668 22.972 38.1419 23.0549C38.6159 23.1379 39.0855 23.1789 39.5518 23.1789C40.018 23.1789 40.5142 23.137 40.9958 23.0549C41.4766 22.972 41.9394 22.8369 42.3835 22.6487C42.8267 22.4606 43.2408 22.2195 43.6243 21.9261C44.0077 21.6328 44.3382 21.2677 44.6165 20.8307C44.8949 20.3937 45.1127 19.8781 45.2707 19.2829C45.4287 18.6877 45.5072 18.0061 45.5072 17.2382V7.02688H42.0778V17.0347L42.0795 17.0355ZM30.2663 14.9346C30.6275 15.1304 30.9281 15.3716 31.1689 15.6572L31.1681 15.658C31.408 15.9437 31.5925 16.2755 31.7206 16.6517C31.8486 17.0288 31.9127 17.435 31.9127 17.872V18.6399C31.9127 19.348 31.7966 19.9654 31.5634 20.4922C31.3303 21.019 30.9879 21.456 30.537 21.8023C30.0852 22.1486 29.5327 22.4086 28.8786 22.5813C28.2245 22.7549 27.4687 22.8413 26.6114 22.8413H20.1145V7.02788H26.7241C27.4611 7.02788 28.1195 7.09971 28.6984 7.24252C29.2774 7.38533 29.7659 7.60767 30.1647 7.90868C30.5626 8.21055 30.8709 8.59793 31.0895 9.07254C31.3072 9.54715 31.4166 10.1081 31.4166 10.7555V11.3652C31.4166 11.7722 31.3568 12.1485 31.2364 12.4948C31.116 12.8412 30.9503 13.1465 30.7402 13.4099C30.5293 13.6732 30.2774 13.8922 29.9845 14.0649C29.6916 14.2385 29.3645 14.3779 29.0033 14.4831V14.5284C29.4841 14.6036 29.9051 14.7388 30.2663 14.9346ZM25.8898 9.80626H23.5209H23.5201V13.5561H25.8215C26.1673 13.5561 26.4756 13.5262 26.7463 13.4654C27.0179 13.4056 27.2433 13.3115 27.4235 13.1832C27.6045 13.0558 27.7395 12.8933 27.83 12.6975C27.9196 12.5017 27.9649 12.2537 27.9649 11.9518V11.4097C27.9649 11.0933 27.9205 10.8376 27.83 10.6417C27.7395 10.4459 27.6122 10.2843 27.4465 10.156C27.2809 10.0286 27.0665 9.93795 26.8035 9.88493C26.5405 9.83277 26.2356 9.80626 25.8898 9.80626ZM28.2023 19.159C28.315 18.9179 28.3714 18.6322 28.3714 18.3005V18.2996V17.5992C28.3714 17.223 28.3184 16.9211 28.2134 16.6953C28.1084 16.4696 27.9461 16.2926 27.7283 16.1643C27.5106 16.0369 27.2544 15.9462 26.9615 15.8932C26.6677 15.841 26.333 15.8145 25.9573 15.8145H23.5209V20.0621H25.9803C26.3415 20.0621 26.6686 20.0364 26.9615 19.9834C27.2544 19.9312 27.5063 19.8406 27.7172 19.7123C27.9273 19.5849 28.0896 19.4002 28.2023 19.159ZM16.7072 14.9262L6.7092 22.8417V7.02802L16.7072 14.9262ZM69.5334 7.02688V7.93932H69.5291V10.8015C69.5189 11.1598 69.4839 11.4985 69.4207 11.814C69.3455 12.1903 69.2174 12.5144 69.0373 12.7855C68.8571 13.0565 68.6052 13.2755 68.2815 13.4405C67.9579 13.6064 67.548 13.6893 67.0518 13.6893C66.5557 13.6893 66.1159 13.6107 65.7769 13.4525C65.4387 13.2943 65.1791 13.0762 64.9981 12.7974C64.8179 12.5186 64.6932 12.1911 64.6258 11.8149C64.5583 11.4386 64.5241 11.0392 64.5241 10.6177V7.02773H61.0725V10.7981C61.0725 11.566 61.1511 12.2518 61.309 12.8539C61.467 13.4567 61.689 13.9758 61.9743 14.4128C62.2595 14.8498 62.5942 15.2149 62.9785 15.5082C63.3619 15.8016 63.7752 16.0393 64.2193 16.2197C64.6625 16.4002 65.1219 16.5319 65.5958 16.6148C66.0698 16.6978 66.5395 16.7388 67.0057 16.7388C67.472 16.7388 67.9681 16.6969 68.4497 16.6148C68.8204 16.5507 69.1799 16.4558 69.5283 16.3292V18.6389C69.5283 18.9254 69.4796 19.1734 69.3814 19.3846C69.2832 19.5959 69.1329 19.7686 68.9305 19.9046C68.7273 20.0397 68.4796 20.138 68.1859 20.1979C67.893 20.2586 67.653 20.2885 67.2773 20.2885C66.8716 20.2885 66.4993 20.2321 66.1603 20.1192C65.8221 20.0063 65.5318 19.8524 65.2918 19.6557C65.051 19.4599 64.8709 19.2153 64.7504 18.9211C64.6317 18.633 64.5728 18.3123 64.5703 17.9582H61.0733V18.0737C61.0733 18.8724 61.2014 19.5916 61.4568 20.2312C61.7121 20.8717 62.0955 21.4062 62.607 21.8355C63.1185 22.2648 63.765 22.5966 64.5472 22.8292C65.3294 23.0626 66.2312 23.1789 67.2542 23.1789C68.1415 23.1789 68.6752 23.0849 69.3976 22.8967C70.1201 22.7086 70.7511 22.4298 71.2925 22.0613C71.8339 21.6927 72.2473 21.2181 72.5333 20.6383C72.8185 20.0585 72.962 19.3846 72.962 18.6167V7.02688H69.5334Z" fill="#919297"></path><path d="M113.898 22.9318V11.0059H117.026V13.0085H117.049C117.169 12.6635 117.326 12.3635 117.521 12.1084C117.716 11.8384 117.941 11.6134 118.196 11.4334C118.466 11.2534 118.759 11.1184 119.074 11.0284C119.404 10.9234 119.756 10.8708 120.131 10.8708C120.251 10.8708 120.341 10.8784 120.401 10.8934C120.476 10.8934 120.544 10.8934 120.604 10.8934V13.7061H120.244C119.644 13.7061 119.134 13.7586 118.714 13.8636C118.309 13.9536 117.979 14.1111 117.724 14.3361C117.484 14.5461 117.311 14.8312 117.206 15.1912C117.101 15.5362 117.049 15.9712 117.049 16.4963V22.9318H113.898Z" fill="#919297"></path><path d="M105.154 23.1344C104.674 23.1344 104.224 23.0668 103.803 22.9318C103.398 22.7968 103.046 22.5943 102.746 22.3243C102.446 22.0543 102.206 21.7242 102.026 21.3342C101.861 20.9292 101.778 20.4716 101.778 19.9616V19.4441C101.778 18.874 101.868 18.409 102.048 18.049C102.243 17.6889 102.498 17.3964 102.813 17.1714C103.128 16.9464 103.481 16.7739 103.871 16.6538C104.276 16.5338 104.681 16.4438 105.086 16.3838C105.491 16.3088 105.889 16.2413 106.279 16.1813C106.684 16.1213 107.036 16.0463 107.336 15.9563C107.651 15.8513 107.899 15.7163 108.079 15.5513C108.274 15.3862 108.371 15.1537 108.371 14.8537V14.4487C108.371 14.2537 108.341 14.0811 108.281 13.9311C108.221 13.7661 108.124 13.6386 107.989 13.5486C107.869 13.4436 107.711 13.3686 107.516 13.3236C107.336 13.2636 107.119 13.2336 106.864 13.2336C106.624 13.2336 106.399 13.2636 106.189 13.3236C105.979 13.3686 105.799 13.4511 105.649 13.5711C105.499 13.6761 105.379 13.8261 105.289 14.0211C105.214 14.2162 105.176 14.4637 105.176 14.7637V15.2587H102.161V14.7637C102.161 14.1186 102.273 13.5486 102.498 13.0536C102.723 12.5585 103.046 12.1385 103.466 11.7935C103.886 11.4334 104.389 11.1634 104.974 10.9834C105.574 10.8034 106.241 10.7134 106.976 10.7134C107.711 10.7134 108.356 10.8034 108.911 10.9834C109.481 11.1484 109.954 11.4034 110.329 11.7485C110.719 12.0935 111.012 12.536 111.207 13.0761C111.417 13.6161 111.522 14.2612 111.522 15.0112L111.499 20.4566C111.499 20.6517 111.507 20.8242 111.522 20.9742C111.537 21.1092 111.559 21.2292 111.589 21.3342C111.634 21.4242 111.687 21.4917 111.747 21.5367C111.807 21.5667 111.889 21.5817 111.994 21.5817C112.039 21.5817 112.077 21.5817 112.107 21.5817C112.152 21.5667 112.197 21.5517 112.242 21.5367V22.9318C112.092 22.9468 111.942 22.9543 111.792 22.9543C111.642 22.9693 111.492 22.9768 111.342 22.9768C111.207 22.9918 111.064 22.9993 110.914 22.9993C110.779 22.9993 110.644 22.9993 110.509 22.9993C110.209 22.9993 109.939 22.9768 109.699 22.9318C109.474 22.8718 109.271 22.7818 109.091 22.6618C108.926 22.5418 108.799 22.3843 108.709 22.1893C108.619 21.9793 108.559 21.7167 108.529 21.4017L108.506 21.1317H108.484C108.349 21.4317 108.176 21.7017 107.966 21.9418C107.771 22.1818 107.531 22.3918 107.246 22.5718C106.976 22.7518 106.661 22.8868 106.301 22.9768C105.956 23.0818 105.574 23.1344 105.154 23.1344ZM106.436 20.7042C106.736 20.7042 107.006 20.6592 107.246 20.5692C107.486 20.4791 107.689 20.3441 107.854 20.1641C108.034 19.9841 108.161 19.7591 108.236 19.4891C108.326 19.219 108.371 18.904 108.371 18.544V16.3838H108.731C108.686 16.6238 108.596 16.8189 108.461 16.9689C108.326 17.1189 108.169 17.2389 107.989 17.3289C107.809 17.4189 107.606 17.4864 107.381 17.5314C107.171 17.5764 106.954 17.6214 106.729 17.6664C106.504 17.6964 106.286 17.7339 106.076 17.7789C105.881 17.8239 105.701 17.8914 105.536 17.9814C105.371 18.0715 105.236 18.1915 105.131 18.3415C105.041 18.4915 104.996 18.694 104.996 18.949V19.4441C104.996 19.6541 105.026 19.8341 105.086 19.9841C105.161 20.1341 105.259 20.2691 105.379 20.3891C105.499 20.4941 105.641 20.5767 105.806 20.6367C105.986 20.6817 106.196 20.7042 106.436 20.7042Z" fill="#919297"></path><path d="M88.9614 22.9318V7.18054H95.4194C96.1245 7.18054 96.762 7.25555 97.3321 7.40556C97.9171 7.54057 98.4047 7.75809 98.7947 8.05811C99.1997 8.34313 99.4998 8.71816 99.6948 9.1832C99.9048 9.64824 100.01 10.2033 100.01 10.8483V11.5234C100.01 11.9434 99.9573 12.3184 99.8523 12.6485C99.7473 12.9785 99.5898 13.2785 99.3797 13.5485C99.1697 13.8036 98.9222 14.0211 98.6372 14.2011C98.3522 14.3811 98.0296 14.5161 97.6696 14.6061V14.6511C98.1346 14.7261 98.5397 14.8611 98.8847 15.0562C99.2447 15.2512 99.5373 15.4912 99.7623 15.7762C100.002 16.0462 100.182 16.3688 100.302 16.7438C100.422 17.1038 100.482 17.5014 100.482 17.9364V18.7915C100.482 19.4965 100.37 20.1116 100.145 20.6366C99.9198 21.1466 99.5823 21.5742 99.1322 21.9192C98.6972 22.2642 98.1571 22.5192 97.5121 22.6843C96.867 22.8493 96.1245 22.9318 95.2844 22.9318H88.9614ZM92.3142 20.1866H94.6994C95.0444 20.1866 95.3594 20.1641 95.6444 20.1191C95.9295 20.0591 96.1695 19.9615 96.3645 19.8265C96.5745 19.6915 96.732 19.5115 96.837 19.2865C96.9571 19.0615 97.0171 18.784 97.0171 18.4539V17.6889C97.0171 17.3288 96.9571 17.0363 96.837 16.8113C96.732 16.5713 96.5745 16.3913 96.3645 16.2713C96.1695 16.1362 95.9295 16.0462 95.6444 16.0012C95.3594 15.9562 95.0369 15.9337 94.6769 15.9337H92.3142V20.1866ZM92.3142 13.6836H94.5644C94.8944 13.6836 95.1869 13.661 95.4419 13.616C95.697 13.556 95.907 13.466 96.072 13.346C96.252 13.211 96.387 13.046 96.477 12.851C96.567 12.641 96.612 12.3859 96.612 12.0859V11.5009C96.612 11.2009 96.567 10.9533 96.477 10.7583C96.402 10.5633 96.2745 10.4058 96.0945 10.2858C95.9295 10.1658 95.7195 10.0758 95.4644 10.0158C95.2244 9.95576 94.9469 9.92576 94.6319 9.92576H92.3142V13.6836Z" fill="#919297"></path></svg> 